<svg width="13" height="15" fill="none" xmlns="http://www.w3.org/2000/svg"><g opacity=".7" fill="#030A1B"><path d="M3.917 5.517l1.295 2.008.908-1.041-1.355-1.592c.58-.849.432-2.247-.431-3.393C3.322.145 1.7-.376.718.353c-.982.73-.952 2.426.06 3.78.878 1.16 2.172 1.696 3.14 1.384zm3.855 2.916L6.79 9.965l2.38 3.675c.343.536 1.072.67 1.592.283l.09-.074a1.113 1.113 0 00.178-1.607l-3.258-3.81z"/><path d="M12.92 1.603a.322.322 0 00-.505.015l-2.172 2.783a.23.23 0 01-.298.044c-.09-.074-.119-.193-.045-.297l2.039-2.872a.336.336 0 00-.015-.417.322.322 0 00-.506.015L9.246 3.657a.23.23 0 01-.298.044c-.09-.074-.119-.193-.045-.297.462-.64 2.054-2.887 2.054-2.887a.33.33 0 00-.134-.49.351.351 0 00-.402.103L8.13 3.077l-.298.386c-.297.402-.431.878-.372 1.295l.134.863-5.699 6.606a1.113 1.113 0 00.179 1.607l.09.075c.505.387 1.234.253 1.591-.283L8.457 6.29l.878-.119c.417-.06.833-.327 1.146-.729l.297-.387 2.158-3.035a.336.336 0 00-.015-.417z"/></g></svg>