<svg width="14" height="15" fill="none" xmlns="http://www.w3.org/2000/svg"><path d="M3.316 0c-1.218 0-2.21.992-2.21 2.21v5.711h.736v-5.71c0-.823.651-1.474 1.474-1.474.694 0 1.266.466 1.427 1.105h.749A2.213 2.213 0 003.316 0zm1.842 2.21a1.47 1.47 0 00-1.474 1.474h2.948a1.47 1.47 0 00-1.474-1.473zM4.053 4.422a.368.368 0 00-.369.368v.369a.368.368 0 10.737 0V4.79a.368.368 0 00-.368-.368zm2.21 0a.368.368 0 00-.368.368v.369a.368.368 0 10.737 0V4.79a.368.368 0 00-.369-.368zm-1.105 1.29a.368.368 0 00-.369.368v.368a.368.368 0 10.737 0V6.08a.368.368 0 00-.368-.368zM0 8.289a4.595 4.595 0 004.605 4.606h4.79A4.595 4.595 0 0014 8.289H0zm3.73 4.974c.143.636.641 1.105 1.244 1.105h4.052c.603 0 1.1-.469 1.244-1.105H3.73z" fill="#030A1B" opacity=".7"/></svg>