<svg width="46" height="46" fill="none" xmlns="http://www.w3.org/2000/svg"><rect opacity=".1" width="46" height="46" rx="5" fill="#FE753F"/><path d="M16.547 21.322v1.574h5.721V16h-6.77c-.825 0-1.5.675-1.5 1.5v1.848h.55c1.124 0 1.999.875 1.999 1.974zm12.643 0c0-1.1.9-1.974 1.973-1.974h.55V17.5c0-.824-.674-1.499-1.499-1.499h-6.746v6.896h5.722v-1.574z" fill="#FE753F"/><path d="M32.763 20.523h-1.6c-.45 0-.799.35-.799.799v2.524c0 .15-.1.25-.25.25H15.622c-.15 0-.25-.1-.25-.25v-2.524c0-.45-.35-.8-.799-.8h-1.6A1.978 1.978 0 0011 22.497c0 1.075.874 1.974 1.974 1.974v2c0 .799.624 1.448 1.4 1.473v.8c0 .325.274.6.599.6h1.374c.325 0 .6-.275.6-.6v-.8H28.84v.8c0 .325.275.6.6.6h1.374c.325 0 .6-.275.6-.6v-.825a1.48 1.48 0 001.399-1.474v-1.999a1.978 1.978 0 001.973-1.974 2.034 2.034 0 00-2.023-1.948z" fill="#FE753F"/></svg>