<svg width="46" height="46" fill="none" xmlns="http://www.w3.org/2000/svg"><rect opacity=".1" width="46" height="46" rx="5" fill="#FE753F"/><path fill-rule="evenodd" clip-rule="evenodd" d="M29.333 31.333a.333.333 0 110 .667h-1a.333.333 0 110-.667h1zM30 29h.667a.333.333 0 110 .667H30A.333.333 0 1130 29zm-3 1c0-.184.149-.333.333-.333H28a.333.333 0 110 .666h-.667A.333.333 0 0127 30zm-.667-1h-.666a.333.333 0 110-.667h.666a.333.333 0 110 .667zM25 32h-.667a.333.333 0 110-.667H25A.333.333 0 1125 32zm-1.667-2.333c0-.184.15-.334.334-.334h.666a.333.333 0 110 .667h-.666a.333.333 0 01-.334-.333zm-1.333-1h-1A.333.333 0 1121 28h1a.333.333 0 110 .667zm0 2h-.667a.333.333 0 110-.667H22a.333.333 0 110 .667zM20.333 32h-1a.333.333 0 110-.667h1a.333.333 0 110 .667zM18 30c0-.184.149-.333.333-.333H19a.333.333 0 110 .666h-.667A.333.333 0 0118 30zm-.667-1h-.666a.333.333 0 110-.667h.666a.333.333 0 110 .667zM17 31.667h-.667a.333.333 0 110-.667H17a.333.333 0 110 .667zm-1.667-1.334h-.666a.333.333 0 110-.666h.666a.333.333 0 110 .666zm14.175-13.342A3.668 3.668 0 0033 13.333V13h-.333a3.668 3.668 0 00-3.661 3.55c-.342.451-.576 1.063-.76 1.643-.153-.875-.352-1.7-.602-2.423.212-.777.647-1.595.923-1.865a.333.333 0 10-.467-.476c-.28.274-.596.82-.84 1.411a4.69 4.69 0 00-.677-1.061.334.334 0 00-.5.442c.418.471.754 1.19 1.023 2.055-.305-.251-.649-.48-1.005-.594a.333.333 0 10-.201.635c.54.172 1.145.793 1.47 1.126l.052.053a24.3 24.3 0 01.41 2.745 12.291 12.291 0 00-.475-.385l-.025-.02a3.001 3.001 0 00-2.867-2.948l-.333-.014-.014.333a3.001 3.001 0 002.753 3.115l.076.06c.37.29.822.645.972.971.078 1.255.086 2.492.04 3.568-.208-.184-.43-.365-.663-.544a3.639 3.639 0 00-1.602-2.16 3.644 3.644 0 00-2.77-.453l-.325.076.076.325a3.641 3.641 0 001.637 2.28c.587.364 1.25.552 1.925.552.226 0 .454-.027.68-.07.366.281.698.569.991.857-.042.548-.1 1.028-.17 1.419A3 3 0 0026.667 27c-.407 0-.773.063-1.109.191-.319-.904-1.194-1.524-2.225-1.524-.711 0-1.287.448-1.567.716a.394.394 0 01-.447.07c-.18-.09-.38-.125-.585-.107a2.775 2.775 0 00-1.271.436l-.01-.017c.171-1.047.259-2.495.23-4.064.152-.308.587-.647.944-.923l.122-.095a3.002 3.002 0 002.754-3.116l-.014-.333-.333.015a2.98 2.98 0 00-2.082.968 2.974 2.974 0 00-.785 1.98l-.07.053c-.188.146-.386.3-.569.464a30.505 30.505 0 00-.162-2.012c.089-.22.171-.5.263-.82.182-.631.406-1.401.757-1.89A3.668 3.668 0 0024 13.332V13h-.333a3.668 3.668 0 00-3.661 3.55c-.337.447-.564 1.049-.74 1.622a15.512 15.512 0 00-.616-2.414c.213-.781.637-1.579.917-1.853a.333.333 0 10-.467-.476c-.279.273-.593.816-.835 1.405a4.791 4.791 0 00-.682-1.055.334.334 0 00-.5.442c.402.453.752 1.156 1.042 2.065-.312-.255-.666-.49-1.024-.604a.333.333 0 10-.201.635c.555.177 1.178.81 1.513 1.151l.036.036c.174.788.314 1.678.412 2.658l.01.105a12.268 12.268 0 00-.47-.377l-.07-.054a3.002 3.002 0 00-2.866-2.948l-.333-.014-.014.333a3.001 3.001 0 002.753 3.115l.122.095c.374.29.833.646.964.965a32.6 32.6 0 01.052 1.338c.023 1.21-.021 2.38-.13 3.331-.328-.255-.729-.384-1.212-.384-1.267 0-2.181.815-2.316 2.018a2.67 2.67 0 00-2.348 2.604.33.33 0 00-.003.044v2.334c0 .184.149.333.333.333h19.334c.184 0 .333-.15.333-.333v-2.334a.33.33 0 00-.003-.044 2.664 2.664 0 00-3.914-2.31.191.191 0 01-.227-.03 2.984 2.984 0 00-.501-.426c.34-1.618.449-4.829.108-7.82.088-.216.17-.49.264-.803.19-.637.424-1.414.78-1.909z" fill="#FE753F"/></svg>