<svg width="46" height="46" fill="none" xmlns="http://www.w3.org/2000/svg"><rect opacity=".1" width="46" height="46" rx="5" fill="#FE753F"/><path d="M29.504 22.927a2.648 2.648 0 10.615-5.26 2.648 2.648 0 00-.615 5.26zm-11.532-2.154l3.939-.786.846 1.362-3.068 2.918c.474.12.929.298 1.352.53.203.113.393.242.577.366.296.202.575.395.85.471.219.06.505.063.523.064a1.936 1.936 0 001.082-.34c.91-.592 2.026-1.207 3.411-1.268a6.485 6.485 0 011.601.122c-.285-.455-5.362-6.608-5.362-6.608l-.134-.16a1.246 1.246 0 00-1.382-.368l-4.782 1.754a1.013 1.013 0 00.547 1.944z" fill="#FE753F"/><path d="M35.38 26.891c-.652.292-1.138.412-1.678.412-.212 0-.432-.02-.672-.059-.799-.142-1.368-.604-1.919-1.05-.339-.274-.659-.533-1.029-.724-.67-.347-1.475-.53-2.33-.53a5.99 5.99 0 00-.268.005c-1.169.051-2.117.572-2.967 1.126a3.033 3.033 0 01-1.627.481c-.162 0-.492-.035-.706-.097-.41-.118-.762-.357-1.103-.588a6.53 6.53 0 00-.507-.323 4.95 4.95 0 00-2.386-.603h-.017c-1.185.004-2.257.368-3.099 1.051-1.173.952-1.947 1.22-2.168 1.257 0 0-.185.049-.582.049-.762 0-1.398-.25-2.037-.527A3.995 3.995 0 009 26.43c.08.046.157.094.231.145.325.226.591.501.85.767.138.142.268.276.406.404.543.498 1.662 1.088 2.95 1.088.653 0 1.286-.142 1.879-.422.175-.083.345-.181.525-.285.298-.172.608-.346.952-.462.433-.146 1.106-.097 1.106-.097.698.044 1.22.374 1.598.656 1.15.86 2.234 1.266 3.413 1.277h.06c.811 0 1.554-.156 2.206-.464.304-.144.594-.355.9-.58.576-.42 1.171-.855 1.938-.885a3.487 3.487 0 011.819.418c.755.42 1.669.849 2.723.849.153 0 .31-.01.464-.027.97-.11 1.79-.467 2.438-1.063.139-.128.27-.263.408-.405.295-.304.6-.618.985-.857a3 3 0 01.087-.052c-.465.041-.959.186-1.558.455z" fill="#FE753F"/></svg>