<svg width="46" height="46" fill="none" xmlns="http://www.w3.org/2000/svg"><rect opacity=".1" width="46" height="46" rx="5" fill="#FE753F"/><path d="M23.5 18.905a4.256 4.256 0 00-4.251 4.252 4.256 4.256 0 004.25 4.25 4.256 4.256 0 004.252-4.25 4.256 4.256 0 00-4.251-4.252zm2.524 3.45l-3.046 3.046a.653.653 0 01-.926 0l-1.163-1.163a.655.655 0 01.925-.926l.701.7 2.583-2.582a.654.654 0 11.926.926z" fill="#FE753F"/><path d="M32.978 18.054v-.017c-.01-.215-.017-.442-.02-.694a2.365 2.365 0 00-2.227-2.316c-2.566-.144-4.55-.98-6.246-2.633l-.014-.014a1.428 1.428 0 00-1.941 0l-.015.014c-1.695 1.653-3.68 2.49-6.245 2.633a2.365 2.365 0 00-2.227 2.316c-.003.25-.01.478-.02.694v.04c-.05 2.616-.112 5.871.977 8.826.598 1.625 1.505 3.038 2.695 4.199 1.355 1.322 3.13 2.372 5.275 3.12a1.62 1.62 0 001.061 0c2.143-.75 3.916-1.8 5.27-3.122 1.189-1.162 2.096-2.574 2.695-4.2 1.093-2.964 1.032-6.225.982-8.846zM23.5 28.717a5.567 5.567 0 01-5.56-5.56 5.567 5.567 0 015.56-5.561 5.567 5.567 0 015.56 5.56 5.567 5.567 0 01-5.56 5.56z" fill="#FE753F"/></svg>