<svg width="46" height="46" fill="none" xmlns="http://www.w3.org/2000/svg"><rect opacity=".1" width="46" height="46" rx="5" fill="#FE753F"/><path d="M29.662 22.435H16.329a.904.904 0 00-.903.903v.995h15.116v-.995a.87.87 0 00-.88-.903z" fill="#FE753F"/><path d="M32.74 16H13.25c-.694 0-1.25.556-1.25 1.25v5.857c0 .694.556 1.25 1.25 1.25h1.134v-.996c0-1.088.88-1.944 1.945-1.944h13.333c1.088 0 1.945.88 1.945 1.944v.995h1.134c.694 0 1.25-.555 1.25-1.25v-5.88A1.24 1.24 0 0032.74 16zm-4.907 3.01H26.56a.524.524 0 01-.532-.533c0-.301.231-.533.532-.533h1.273c.301 0 .533.232.533.533-.023.278-.255.532-.533.532zm3.241 0h-1.273a.524.524 0 01-.532-.533c0-.301.231-.533.532-.533h1.273c.301 0 .532.232.532.533a.538.538 0 01-.532.532zm-5.972 7.916l.231-.394c.162-.254.07-.601-.185-.764-.255-.162-.602-.069-.764.186l-.231.393a2.09 2.09 0 00.162 2.408.972.972 0 01.139.995l-.209.463c-.115.278.023.602.301.74.07.024.14.047.209.047a.578.578 0 00.509-.347l.208-.463a2.09 2.09 0 00-.3-2.13 1.013 1.013 0 01-.07-1.134zm-3.496 0l.232-.394c.162-.254.07-.601-.185-.764-.255-.162-.602-.069-.764.186l-.232.393a2.09 2.09 0 00.162 2.408.972.972 0 01.14.995l-.21.463c-.115.278.024.602.302.74.07.024.139.047.208.047a.578.578 0 00.51-.347l.208-.463a2.09 2.09 0 00-.301-2.13 1.013 1.013 0 01-.07-1.134zm6.991 0l.232-.394c.162-.254.07-.601-.186-.764-.254-.162-.601-.069-.763.186l-.232.393a2.09 2.09 0 00.162 2.408.972.972 0 01.14.995l-.21.463c-.115.278.024.602.302.74.07.024.138.047.208.047a.578.578 0 00.51-.347l.208-.463a2.09 2.09 0 00-.301-2.13 1.013 1.013 0 01-.07-1.134zm-10.486 0l.232-.394c.162-.254.07-.601-.186-.764-.254-.162-.601-.069-.763.186l-.232.393a2.09 2.09 0 00.162 2.408.972.972 0 01.139.995l-.208.463c-.116.278.023.602.3.74.07.024.14.047.209.047a.578.578 0 00.51-.347l.208-.463a2.09 2.09 0 00-.301-2.13 1.013 1.013 0 01-.07-1.134z" fill="#FE753F"/></svg>