<svg width="46" height="46" fill="none" xmlns="http://www.w3.org/2000/svg"><rect opacity=".1" width="46" height="46" rx="5" fill="#FE753F"/><path fill-rule="evenodd" clip-rule="evenodd" d="M13.018 23.64l.775-1.753h-.734C12.244 21.48 12 20.951 12 20.095l2.567.04 1.67-3.788c.733-.897 1.426-1.385 1.996-1.345 3.219.041 6.356.041 9.534 0 .57-.04 1.263.448 1.996 1.345l1.67 3.789L34 20.095c0 .856-.244 1.385-1.06 1.793h-.733l.774 1.751v7.293a.904.904 0 01-.896.896H29.03a.904.904 0 01-.897-.896v-2.078H17.867v2.078a.904.904 0 01-.897.896h-3.055a.904.904 0 01-.896-.896v-7.293zm5.419-7.09c-.285.041-.57.286-.896.652-.57 1.263-1.182 2.485-1.752 3.748h14.463c-.611-1.262-1.222-2.485-1.793-3.748-.326-.366-.61-.61-.896-.652h-9.126zm2.119 8.556c-.408 0-.693.326-.693.733 0 .408.285.734.693.734h4.888a.73.73 0 00.734-.734.73.73 0 00-.734-.733h-4.888zm9.533-1.263c-.774 0-1.426.611-1.426 1.426s.652 1.426 1.426 1.426c.815 0 1.467-.611 1.467-1.426s-.652-1.426-1.467-1.426zm-14.178 0c.774 0 1.426.611 1.426 1.426s-.652 1.426-1.426 1.426c-.815 0-1.467-.611-1.467-1.426s.652-1.426 1.467-1.426z" fill="#FE753F"/></svg>