<svg width="41" height="52" fill="none" xmlns="http://www.w3.org/2000/svg"><g opacity=".1" fill="#FE753F"><path d="M9.908 51.945h3.852a.887.887 0 00.896-.896v-8.76a5.925 5.925 0 015.929-5.93c1.576 0 3.063.628 4.192 1.738a5.956 5.956 0 011.737 4.192v8.76c0 .502.394.896.896.896h3.851c5.267 0 9.566-4.3 9.566-9.566V18.393a.907.907 0 00-.286-.663L21.194.228a.926.926 0 00-1.218 0L.629 17.73a.907.907 0 00-.286.663v23.986c0 5.266 4.299 9.566 9.565 9.566z"/><path d="M11.652 28.625h20.085V52H11.652z"/></g></svg>