<svg width="30" height="30" fill="none" xmlns="http://www.w3.org/2000/svg"><rect width="30" height="30" rx="15" fill="#FE753F"/><g clip-path="url(#clip0_1_147)" fill="#fff"><path d="M19 9h-8a2 2 0 00-2 2v8a2 2 0 002 2h8a2 2 0 002-2v-8a2 2 0 00-2-2zm1 10a1 1 0 01-1 1h-8a1 1 0 01-1-1v-8a1 1 0 011-1h8a1 1 0 011 1v8z"/><path d="M15 12a3 3 0 100 5.999A3 3 0 0015 12zm0 5a2 2 0 110-4 2 2 0 010 4zm3.25-4.5a.75.75 0 100-1.5.75.75 0 000 1.5z"/></g><defs><clipPath id="clip0_1_147"><path fill="#fff" transform="translate(9 9)" d="M0 0h12v12H0z"/></clipPath></defs></svg>