<svg width="30" height="30" fill="none" xmlns="http://www.w3.org/2000/svg"><rect width="30" height="30" rx="15" fill="#FE753F"/><path d="M20.995 21.369h.003v-4.537c0-2.22-.463-3.929-2.98-3.929-1.21 0-2.022.685-2.353 1.334h-.035V13.11h-2.386v8.258h2.484V17.28c0-1.076.198-2.117 1.492-2.117 1.274 0 1.293 1.228 1.293 2.186v4.02h2.482zM9.199 13.111h2.487v8.258H9.2V13.11zM10.44 9C9.646 9 9 9.665 9 10.486c0 .82.645 1.499 1.44 1.499.796 0 1.442-.68 1.442-1.5C11.88 9.665 11.236 9 10.44 9z" fill="#fff"/></svg>