<svg width="30" height="30" fill="none" xmlns="http://www.w3.org/2000/svg"><rect width="30" height="30" rx="15" fill="#FE753F"/><path d="M19.63 10h-9.26c-.63 0-1.232.258-1.676.716A2.484 2.484 0 008 12.444v5.112c0 .648.25 1.27.694 1.728a2.333 2.333 0 001.675.716h9.262c.628 0 1.23-.258 1.675-.716.444-.458.694-1.08.694-1.728v-5.112c0-.648-.25-1.27-.694-1.728A2.333 2.333 0 0019.631 10zm-1.888 5.098l-4.2 2.222a.105.105 0 01-.143-.044.115.115 0 01-.014-.054v-4.444a.11.11 0 01.052-.094.105.105 0 01.105-.004l4.2 2.222a.13.13 0 01.043.041.113.113 0 01-.043.157v-.002z" fill="#fff"/></svg>